<svg xmlns="http://www.w3.org/2000/svg" viewBox="0 0 1200 630" font-family="Figtree,Segoe UI,Arial,sans-serif">
<rect width="1200" height="630" fill="#f4f7ff"/>
<text x="80" y="70" font-size="28" font-weight="700" fill="#13235a">Checklist sebelum jadwal dikunci</text>
<g font-size="21" fill="#13235a">
<g fill="#2457d6"><rect x="80" y="105" width="34" height="34" rx="8"/><rect x="80" y="170" width="34" height="34" rx="8"/><rect x="80" y="235" width="34" height="34" rx="8"/><rect x="80" y="300" width="34" height="34" rx="8"/><rect x="80" y="365" width="34" height="34" rx="8" fill="#c2581e"/><rect x="80" y="430" width="34" height="34" rx="8"/><rect x="80" y="495" width="34" height="34" rx="8"/></g>
<g stroke="#fff" stroke-width="4" fill="none" stroke-linecap="round"><path d="M88 122l7 7 12-14M88 187l7 7 12-14M88 252l7 7 12-14M88 317l7 7 12-14M88 382l7 7 12-14M88 447l7 7 12-14M88 512l7 7 12-14"/></g>
<text x="135" y="130">Semua konten minggu depan berstatus draft</text>
<text x="135" y="195">Cek internal: ejaan, harga, tanggal, tautan, tagar</text>
<text x="135" y="260">Tautan preview terkirim ke pemberi masukan dan pemutus</text>
<text x="135" y="325">Persetujuan tercatat tertulis per konten</text>
<text x="135" y="390" font-weight="700">Revisi diterapkan di versi global dan semua versi kanal</text>
<text x="135" y="455">Jam tayang dicek dengan zona waktu perangkat penjadwal</text>
<text x="135" y="520">Tidak ada draft tertinggal di tampilan daftar</text>
</g>
<text x="80" y="585" font-size="17" fill="#c2581e">Butir oranye paling sering terlewat.</text>
</svg>
